<mxfile host="app.diagrams.net" modified="2020-05-12T03:03:17.727Z" agent="5.0 (Windows NT 10.0; Win64; x64) AppleWebKit/537.36 (KHTML, like Gecko) Chrome/81.0.4044.138 Safari/537.36" etag="9-d5r7K5EZzNXRcgF-5l" version="13.0.9" type="github">
  <diagram id="aVMis7E-U1IV79bnSuUi" name="第 1 页">
    <mxGraphModel dx="1422" dy="762" grid="1" gridSize="10" guides="1" tooltips="1" connect="1" arrows="1" fold="1" page="1" pageScale="1" pageWidth="1169" pageHeight="1654" math="0" shadow="0">
      <root>
        <mxCell id="0" />
        <mxCell id="1" parent="0" />
        <mxCell id="Ei1FDy5gru2LnIl25OD1-4" value="订单" style="rounded=1;whiteSpace=wrap;html=1;" vertex="1" parent="1">
          <mxGeometry x="690" y="260" width="120" height="80" as="geometry" />
        </mxCell>
        <mxCell id="Ei1FDy5gru2LnIl25OD1-9" value="收货人信息" style="rounded=1;whiteSpace=wrap;html=1;" vertex="1" parent="1">
          <mxGeometry x="800" y="540" width="120" height="50" as="geometry" />
        </mxCell>
        <mxCell id="Ei1FDy5gru2LnIl25OD1-10" value="" style="endArrow=classic;html=1;" edge="1" parent="1" source="Ei1FDy5gru2LnIl25OD1-4" target="Ei1FDy5gru2LnIl25OD1-9">
          <mxGeometry width="50" height="50" relative="1" as="geometry">
            <mxPoint x="580" y="420" as="sourcePoint" />
            <mxPoint x="630" y="370" as="targetPoint" />
          </mxGeometry>
        </mxCell>
        <mxCell id="Ei1FDy5gru2LnIl25OD1-12" value="发货记录" style="rounded=1;whiteSpace=wrap;html=1;" vertex="1" parent="1">
          <mxGeometry x="990" y="510" width="120" height="60" as="geometry" />
        </mxCell>
        <mxCell id="Ei1FDy5gru2LnIl25OD1-13" value="物流信息" style="rounded=1;whiteSpace=wrap;html=1;" vertex="1" parent="1">
          <mxGeometry x="970" y="757" width="130" height="70" as="geometry" />
        </mxCell>
        <mxCell id="Ei1FDy5gru2LnIl25OD1-14" value="交易记录" style="rounded=1;whiteSpace=wrap;html=1;" vertex="1" parent="1">
          <mxGeometry x="1030" y="340" width="120" height="50" as="geometry" />
        </mxCell>
        <mxCell id="Ei1FDy5gru2LnIl25OD1-15" value="商品快照" style="rounded=1;whiteSpace=wrap;html=1;" vertex="1" parent="1">
          <mxGeometry x="420" y="340" width="88" height="70" as="geometry" />
        </mxCell>
        <mxCell id="Ei1FDy5gru2LnIl25OD1-20" value="商品评价" style="rounded=1;whiteSpace=wrap;html=1;" vertex="1" parent="1">
          <mxGeometry x="280" y="550" width="88" height="40" as="geometry" />
        </mxCell>
        <mxCell id="Ei1FDy5gru2LnIl25OD1-23" value="评价操作 如点赞" style="rounded=1;whiteSpace=wrap;html=1;" vertex="1" parent="1">
          <mxGeometry x="280" y="730" width="120" height="50" as="geometry" />
        </mxCell>
        <mxCell id="Ei1FDy5gru2LnIl25OD1-25" value="优惠券" style="rounded=1;whiteSpace=wrap;html=1;" vertex="1" parent="1">
          <mxGeometry x="590" y="590" width="120" height="60" as="geometry" />
        </mxCell>
        <mxCell id="Ei1FDy5gru2LnIl25OD1-27" value="" style="endArrow=classic;html=1;" edge="1" parent="1" source="Ei1FDy5gru2LnIl25OD1-4" target="Ei1FDy5gru2LnIl25OD1-12">
          <mxGeometry width="50" height="50" relative="1" as="geometry">
            <mxPoint x="580" y="420" as="sourcePoint" />
            <mxPoint x="630" y="370" as="targetPoint" />
          </mxGeometry>
        </mxCell>
        <mxCell id="Ei1FDy5gru2LnIl25OD1-28" value="" style="endArrow=classic;html=1;" edge="1" parent="1" source="Ei1FDy5gru2LnIl25OD1-12" target="Ei1FDy5gru2LnIl25OD1-13">
          <mxGeometry width="50" height="50" relative="1" as="geometry">
            <mxPoint x="580" y="420" as="sourcePoint" />
            <mxPoint x="630" y="370" as="targetPoint" />
          </mxGeometry>
        </mxCell>
        <mxCell id="Ei1FDy5gru2LnIl25OD1-33" value="" style="endArrow=classic;html=1;entryX=0.75;entryY=0;entryDx=0;entryDy=0;exitX=0;exitY=0.5;exitDx=0;exitDy=0;" edge="1" parent="1" source="Ei1FDy5gru2LnIl25OD1-4" target="Ei1FDy5gru2LnIl25OD1-15">
          <mxGeometry width="50" height="50" relative="1" as="geometry">
            <mxPoint x="580" y="420" as="sourcePoint" />
            <mxPoint x="630" y="370" as="targetPoint" />
          </mxGeometry>
        </mxCell>
        <mxCell id="Ei1FDy5gru2LnIl25OD1-34" value="" style="endArrow=classic;html=1;entryX=0.642;entryY=0.017;entryDx=0;entryDy=0;entryPerimeter=0;exitX=0.25;exitY=1;exitDx=0;exitDy=0;" edge="1" parent="1" source="Ei1FDy5gru2LnIl25OD1-4" target="Ei1FDy5gru2LnIl25OD1-25">
          <mxGeometry width="50" height="50" relative="1" as="geometry">
            <mxPoint x="580" y="420" as="sourcePoint" />
            <mxPoint x="630" y="370" as="targetPoint" />
          </mxGeometry>
        </mxCell>
        <mxCell id="Ei1FDy5gru2LnIl25OD1-35" value="" style="endArrow=classic;html=1;entryX=-0.008;entryY=0.133;entryDx=0;entryDy=0;entryPerimeter=0;exitX=0.75;exitY=1;exitDx=0;exitDy=0;" edge="1" parent="1" source="Ei1FDy5gru2LnIl25OD1-15" target="Ei1FDy5gru2LnIl25OD1-25">
          <mxGeometry width="50" height="50" relative="1" as="geometry">
            <mxPoint x="580" y="420" as="sourcePoint" />
            <mxPoint x="630" y="370" as="targetPoint" />
          </mxGeometry>
        </mxCell>
        <mxCell id="Ei1FDy5gru2LnIl25OD1-37" value="商品" style="triangle;whiteSpace=wrap;html=1;" vertex="1" parent="1">
          <mxGeometry x="80" y="230" width="60" height="80" as="geometry" />
        </mxCell>
        <mxCell id="Ei1FDy5gru2LnIl25OD1-38" value="" style="endArrow=classic;html=1;exitX=0.5;exitY=1;exitDx=0;exitDy=0;entryX=0;entryY=0.25;entryDx=0;entryDy=0;" edge="1" parent="1" source="Ei1FDy5gru2LnIl25OD1-37" target="Ei1FDy5gru2LnIl25OD1-15">
          <mxGeometry width="50" height="50" relative="1" as="geometry">
            <mxPoint x="580" y="520" as="sourcePoint" />
            <mxPoint x="630" y="470" as="targetPoint" />
          </mxGeometry>
        </mxCell>
        <mxCell id="Ei1FDy5gru2LnIl25OD1-39" value="" style="endArrow=classic;html=1;exitX=0.375;exitY=1.057;exitDx=0;exitDy=0;exitPerimeter=0;" edge="1" parent="1" source="Ei1FDy5gru2LnIl25OD1-15" target="Ei1FDy5gru2LnIl25OD1-20">
          <mxGeometry width="50" height="50" relative="1" as="geometry">
            <mxPoint x="580" y="520" as="sourcePoint" />
            <mxPoint x="630" y="470" as="targetPoint" />
          </mxGeometry>
        </mxCell>
        <mxCell id="Ei1FDy5gru2LnIl25OD1-40" value="" style="endArrow=classic;html=1;exitX=0.75;exitY=1;exitDx=0;exitDy=0;" edge="1" parent="1" source="Ei1FDy5gru2LnIl25OD1-20" target="Ei1FDy5gru2LnIl25OD1-23">
          <mxGeometry width="50" height="50" relative="1" as="geometry">
            <mxPoint x="580" y="520" as="sourcePoint" />
            <mxPoint x="630" y="470" as="targetPoint" />
          </mxGeometry>
        </mxCell>
        <mxCell id="Ei1FDy5gru2LnIl25OD1-41" value="" style="endArrow=classic;html=1;exitX=1;exitY=0.5;exitDx=0;exitDy=0;entryX=0;entryY=0.25;entryDx=0;entryDy=0;" edge="1" parent="1" source="Ei1FDy5gru2LnIl25OD1-4" target="Ei1FDy5gru2LnIl25OD1-14">
          <mxGeometry width="50" height="50" relative="1" as="geometry">
            <mxPoint x="580" y="520" as="sourcePoint" />
            <mxPoint x="1070" y="370" as="targetPoint" />
          </mxGeometry>
        </mxCell>
      </root>
    </mxGraphModel>
  </diagram>
</mxfile>
